<?xml version="1.0" encoding="UTF-8"?>
<svg width="99px" height="30px" viewBox="0 0 99 30" version="1.1" xmlns="http://www.w3.org/2000/svg" xmlns:xlink="http://www.w3.org/1999/xlink">
    <!-- Generator: sketchtool 51.1 (57501) - http://www.bohemiancoding.com/sketch -->
    <title>0E317079-57A6-44E6-B2F2-6A34B62B5D52</title>
    <desc>Created with sketchtool.</desc>
    <defs>
        <polygon id="path-1" points="0.332931034 1.13993889 10.5931034 1.13993889 10.5931034 12.5996056 0.332931034 12.5996056"></polygon>
        <polygon id="path-3" points="1.62775862 0.545944444 9.895 0.545944444 9.895 6.23065556 1.62775862 6.23065556"></polygon>
    </defs>
    <g id="Web-App" stroke="none" stroke-width="1" fill="none" fill-rule="evenodd">
        <g id="Requests" transform="translate(-50.000000, -24.000000)">
            <g id="Group-31" transform="translate(50.000000, 24.000000)">
                <path d="M54.7325862,11.7442722 C53.3256897,11.7442722 52.1584483,12.2833278 51.5067241,13.2288278 L51.5067241,12.3074389 C51.5067241,12.1334944 51.3843103,12.0112167 51.2101724,12.0112167 L49.6532759,12.0112167 C49.4791379,12.0112167 49.355,12.1334944 49.355,12.3074389 L49.355,22.5684389 C49.355,22.7458278 49.4791379,22.8663833 49.6532759,22.8663833 L51.2101724,22.8663833 C51.3843103,22.8663833 51.5067241,22.7458278 51.5067241,22.5684389 L51.5067241,16.53205 C51.5067241,14.8649389 52.5584483,13.7472167 54.1256897,13.7472167 C55.7912069,13.7472167 56.6705172,14.7512722 56.6705172,16.6526056 L56.6705172,22.5684389 C56.6705172,22.7458278 56.792931,22.8663833 56.967069,22.8663833 L58.5239655,22.8663833 C58.6998276,22.8663833 58.8222414,22.7458278 58.8222414,22.5684389 L58.8222414,16.1686611 C58.8222414,13.4389389 57.255,11.7442722 54.7325862,11.7442722" id="Fill-1" fill="#3359DB"></path>
                <path d="M74.13,15.4081278 C74.5075862,14.2749056 75.5731034,13.6256278 76.8593103,13.6256278 C78.1472414,13.6256278 79.1024138,14.2749056 79.48,15.4081278 C79.5955172,15.7542944 79.6489655,16.15385 79.6489655,16.6997944 C79.6489655,16.7686833 79.5162069,16.7910722 79.4472414,16.7910722 L74.0006897,16.7910722 C73.9351724,16.7910722 73.9110345,16.7686833 73.9110345,16.6997944 C73.9110345,16.15385 74.0144828,15.7542944 74.13,15.4081278 M76.7506897,11.7191278 C74.4696552,11.7191278 72.7851724,12.8730167 72.13,14.8862944 C71.8765517,15.6234056 71.7351724,16.3760167 71.7351724,17.6831833 C71.7351724,18.4185722 71.8506897,19.1091833 72.0489655,19.8032389 L72.0713793,19.8704056 C72.7075862,21.9009056 74.5110345,23.1099056 76.8731034,23.1099056 C78.7731034,23.1099056 80.4472414,22.3762389 81.4593103,21.09835 C81.58,20.9485167 81.5662069,20.7935167 81.4282759,20.6832944 L80.43,19.7825722 C80.292069,19.67235 80.1403448,19.68785 79.9886207,19.8394056 C79.4886207,20.41635 78.567931,21.1069611 77.042069,21.1069611 C75.5989655,21.1069611 74.492069,20.4835167 74.0713793,19.1815167 C73.9955172,18.9490167 73.9593103,18.6562389 73.9593103,18.61835 C73.9593103,18.5511833 73.9834483,18.5287944 74.0524138,18.5287944 L81.417931,18.5287944 C81.6127586,18.5287944 81.7386207,18.4116833 81.7386207,18.2291278 C81.7386207,16.3846278 81.6041379,15.6079056 81.3713793,14.8862944 C80.7075862,12.8730167 79.0231034,11.7191278 76.7506897,11.7191278" id="Fill-3" fill="#3359DB"></path>
                <path d="M86.9843103,20.9609167 L86.5222414,20.9609167 C85.7118966,20.9609167 85.4101724,20.6268056 85.4101724,19.7295278 L85.4101724,7.40358333 C85.4101724,7.22791667 85.4101724,7.10219444 85.4032759,7.10563889 L83.5584483,7.10563889 C83.3825862,7.10563889 83.2601724,7.22791667 83.2601724,7.40358333 L83.2601724,19.8500833 C83.2601724,22.0321389 84.1274138,22.9638611 86.1584483,22.9638611 L86.9843103,22.9638611 C87.1601724,22.9638611 87.2825862,22.8415833 87.2825862,22.6659167 L87.2825862,21.2571389 C87.2825862,21.0831944 87.1601724,20.9609167 86.9843103,20.9609167" id="Fill-5" fill="#3359DB"></path>
                <g id="Group-9" transform="translate(87.931034, 10.509611)">
                    <mask id="mask-2" fill="white">
                        <use xlink:href="#path-1"></use>
                    </mask>
                    <g id="Clip-8"></g>
                    <path d="M4.78637931,10.7413278 C3.25534483,10.7413278 2.41051724,10.1144389 2.41051724,8.97605 C2.41051724,7.68782778 3.2587931,7.13843889 5.24844828,7.13843889 L7.5812069,7.13843889 C7.64844828,7.13843889 7.67086207,7.16082778 7.67086207,7.22799444 L7.67086207,8.51621667 C7.67086207,9.90949444 6.59327586,10.7413278 4.78637931,10.7413278 M10.332931,10.7464944 C9.89844828,10.7464944 9.77948276,10.6259389 9.75189655,10.1058278 L9.75189655,5.21988333 C9.75189655,2.33343889 8.45362069,1.13993889 5.12603448,1.13993889 C3.50706897,1.13993889 2.08810345,1.61871667 1.12603448,2.36616111 C1.00534483,2.48499444 0.988103448,2.61071667 1.06741379,2.77260556 L1.72603448,3.88860556 C1.81051724,4.03155 2.00189655,4.04532778 2.145,3.92993889 C2.93465517,3.36677222 3.795,3.04643889 4.9312069,3.04643889 C7.20534483,3.04643889 7.66396552,3.92132778 7.67086207,5.31288333 C7.67086207,5.37832778 7.64844828,5.40071667 7.5812069,5.40071667 L4.9312069,5.40071667 C1.92258621,5.40071667 0.332931034,6.66310556 0.332931034,9.05010556 C0.332931034,11.23905 1.85189655,12.5996056 4.30017241,12.5996056 C5.82086207,12.5996056 7.03465517,12.0984389 7.67775862,11.2201056 C7.73465517,12.1191056 8.01224138,12.4463278 9.16741379,12.4463278 L10.5932759,12.4566611 L10.5932759,11.0082722 C10.5932759,10.8498278 10.4881034,10.7464944 10.332931,10.7464944" id="Fill-7" fill="#3359DB" mask="url(#mask-2)"></path>
                </g>
                <path d="M68.1468966,18.3396944 C68.1468966,19.9603056 66.8555172,21.2743611 65.2606897,21.2743611 C63.6658621,21.2743611 62.3744828,20.1308056 62.3744828,18.0675833 L62.3744828,17.7403611 C62.3727586,17.6835278 62.3727586,17.6249722 62.3727586,17.5646944 C62.3727586,17.4820278 62.3727586,17.40625 62.3744828,17.3304722 L62.3744828,16.8344722 C62.3744828,14.7953611 63.6658621,13.5174722 65.2606897,13.5174722 C66.8555172,13.5174722 68.1468966,14.8315278 68.1468966,16.4521389 L68.1468966,18.3396944 Z M68.4141379,7.06602778 C68.2365517,7.06602778 68.1141379,7.18830556 68.1141379,7.36397222 L68.1141379,12.7149167 C67.577931,12.0794167 66.3451724,11.7074167 64.9486207,11.7074167 C62.877931,11.7074167 61.2417241,12.7889722 60.6296552,14.6300278 C60.3417241,15.5031944 60.1796552,16.3643056 60.2348276,17.5026944 C60.2762069,18.3138611 60.3262069,19.3764722 60.6727586,20.2823611 C61.3865517,22.1578611 62.8641379,23.11025 64.8451724,23.11025 C66.4124138,23.11025 67.6124138,22.7038056 68.1141379,22.0149167 L68.1141379,22.5436389 C68.1141379,22.7193056 68.2365517,22.8415833 68.4141379,22.8415833 L69.9693103,22.8415833 C70.1434483,22.8415833 70.2675862,22.7193056 70.2675862,22.5436389 L70.2675862,7.36397222 L70.2675862,7.06602778 L68.4141379,7.06602778 Z" id="Fill-10" fill="#3359DB"></path>
                <path d="M41.287931,17.1673778 L41.2844828,17.1673778 L38.9051724,17.1673778 L41.2844828,11.3962111 L41.2844828,11.3996556 L41.2862069,11.3962111 L41.287931,11.3996556 L41.287931,11.3962111 L43.6689655,17.1673778 L41.287931,17.1673778 Z M47.9396552,22.2617111 L42.4034483,8.57348889 C42.2810345,8.21698889 41.962069,7.61076667 41.2844828,7.61076667 C40.6051724,7.61076667 40.2896552,8.21698889 40.1655172,8.57348889 L34.6310345,22.2617111 C34.6310345,22.2668778 34.4189655,22.7232667 34.4603448,22.7818222 C34.5017241,22.8386556 34.5724138,22.8713778 34.662069,22.8713778 L36.3603448,22.8713778 C36.5293103,22.8713778 36.6448276,22.7835444 36.7258621,22.5906556 L38.0844828,19.2633222 L41.2844828,19.2633222 L41.287931,19.2633222 L44.4775862,19.2633222 L45.8448276,22.5906556 C45.9241379,22.7835444 46.0413793,22.8713778 46.2103448,22.8713778 L47.9086207,22.8713778 C47.9982759,22.8713778 48.0706897,22.8386556 48.112069,22.7818222 C48.1534483,22.7232667 47.9396552,22.2668778 47.9396552,22.2617111 Z" id="Fill-12" fill="#3359DB"></path>
                <g id="Group-16" transform="translate(8.620690, 0.176278)">
                    <mask id="mask-4" fill="white">
                        <use xlink:href="#path-3"></use>
                    </mask>
                    <g id="Clip-15"></g>
                    <path d="M7.52086207,6.23065556 L5.76051724,4.06926667 L4.00189655,6.23065556 L1.62775862,4.94243333 C1.62775862,4.94243333 4.47258621,1.58237778 4.76396552,1.23793333 C5.05189655,0.896933333 5.32086207,0.559377778 5.75706897,0.547322222 L5.75706897,0.5456 C5.7587931,0.5456 5.76051724,0.547322222 5.76051724,0.547322222 C5.76224138,0.547322222 5.76396552,0.5456 5.76741379,0.5456 L5.76741379,0.547322222 C6.20362069,0.559377778 6.47086207,0.896933333 6.7587931,1.23793333 C7.05189655,1.58237778 9.895,4.94243333 9.895,4.94243333 L7.52086207,6.23065556 Z" id="Fill-14" fill="#3359DB" mask="url(#mask-4)"></path>
                </g>
                <path d="M10.2484483,25.05705 C10.2484483,25.05705 13.0932759,28.4188278 13.3846552,28.7649944 C13.6725862,29.10255 13.9398276,29.4401056 14.3777586,29.4538833 C14.3794828,29.4538833 14.3794828,29.4538833 14.3812069,29.4538833 C14.3812069,29.4538833 14.3846552,29.4538833 14.3863793,29.4538833 C14.8243103,29.4401056 15.0915517,29.10255 15.3794828,28.7649944 C15.6708621,28.4188278 18.5156897,25.05705 18.5156897,25.05705 L16.1415517,23.7688278 L14.3812069,25.9319389 L12.6208621,23.7688278 L10.2484483,25.05705 Z" id="Fill-17" fill="#3359DB"></path>
                <path d="M9.48155172,7.70703889 L6.70741379,7.42115 L6.99189655,10.1922056 L4.40224138,10.9585944 C4.40224138,10.9585944 4.03327586,6.57381667 3.99706897,6.12259444 C3.95913793,5.67998333 3.90913793,5.25115 4.21086207,4.93426111 L4.20913793,4.93253889 C4.21086207,4.93253889 4.21258621,4.93081667 4.21258621,4.93081667 C4.21431034,4.92909444 4.21431034,4.92737222 4.21603448,4.92565 L4.21775862,4.92737222 C4.535,4.62598333 4.96258621,4.67765 5.40741379,4.71381667 C5.85741379,4.75170556 10.2487931,5.12026111 10.2487931,5.12026111 L9.48155172,7.70703889 Z" id="Fill-19" fill="#3359DB"></path>
                <path d="M18.5155172,25.05705 C18.5155172,25.05705 22.9068966,25.4256056 23.3603448,25.4634944 C23.8,25.4996611 24.2293103,25.5496056 24.5482759,25.2499389 C24.5482759,25.2482167 24.55,25.2464944 24.55,25.2464944 C24.55,25.2464944 24.5534483,25.24305 24.5551724,25.24305 L24.5534483,25.2413278 C24.8551724,24.9244389 24.8034483,24.4973278 24.7689655,24.0547167 C24.7293103,23.6034944 24.362069,19.2169944 24.362069,19.2169944 L21.7724138,19.9833833 L22.0586207,22.7561611 L19.2827586,22.4702722 L18.5155172,25.05705 Z" id="Fill-21" fill="#3359DB"></path>
                <path d="M5.69137931,13.3302667 L3.52758621,15.0886556 L5.69137931,16.8470444 L4.40172414,19.2168222 C4.40172414,19.2168222 1.0362069,16.3768778 0.69137931,16.0841 C0.351724138,15.7964889 0.0137931034,15.5295444 0.00172413793,15.0921 L0,15.0921 L0,15.0886556 C0,15.0869333 0,15.0852111 0,15.0817667 L0.00172413793,15.0817667 C0.0137931034,14.6460444 0.351724138,14.3791 0.69137931,14.0914889 C1.0362069,13.7987111 4.40172414,10.9587667 4.40172414,10.9587667 L5.69137931,13.3302667 Z" id="Fill-23" fill="#3359DB"></path>
                <path d="M24.3615517,19.2176833 C24.3615517,19.2176833 27.7287931,16.3760167 28.0736207,16.0832389 C28.4115517,15.79735 28.7512069,15.5304056 28.7632759,15.0929611 L28.7632759,15.0877944 L28.7632759,15.0826278 C28.7512069,14.6469056 28.4115517,14.3799611 28.0736207,14.0906278 C27.7287931,13.7995722 24.3615517,10.9596278 24.3615517,10.9596278 L23.0736207,13.3311278 L25.2374138,15.0877944 L23.0736207,16.8479056 L24.3615517,19.2176833 Z" id="Fill-25" fill="#3359DB"></path>
                <path d="M6.99206897,19.9837278 L6.70586207,22.7547833 L9.48,22.4688944 L10.2489655,25.0573944 C10.2489655,25.0573944 5.85758621,25.42595 5.40758621,25.4621167 C4.96275862,25.5000056 4.53344828,25.5482278 4.2162069,25.2485611 L4.2162069,25.2502833 L4.21275862,25.2468389 C4.21103448,25.2451167 4.21103448,25.2451167 4.20758621,25.2416722 L4.20931034,25.2416722 C3.90758621,24.9247833 3.95931034,24.4976722 3.99551724,24.0533389 C4.03344828,23.6038389 4.40241379,19.2173389 4.40241379,19.2173389 L6.99206897,19.9837278 Z" id="Fill-27" fill="#3359DB"></path>
                <path d="M24.3615517,10.9587667 C24.3615517,10.9587667 24.7305172,6.57226667 24.7684483,6.12104444 C24.8046552,5.68015556 24.8563793,5.25132222 24.5546552,4.93443333 L24.5546552,4.93271111 C24.552931,4.93271111 24.5512069,4.93098889 24.5512069,4.93098889 L24.5477586,4.92754444 C24.2305172,4.62787778 23.8012069,4.67782222 23.3581034,4.71226667 C22.9081034,4.75187778 18.515,5.11871111 18.515,5.11871111 L19.2839655,7.70548889 L22.0581034,7.42132222 L21.7736207,10.1923778 L24.3615517,10.9587667 Z" id="Fill-29" fill="#3359DB"></path>
            </g>
        </g>
    </g>
</svg>